<svg width="62" height="120" viewBox="0 0 62 120" fill="none" xmlns="http://www.w3.org/2000/svg">
<path d="M6.99895 3.37739C-5.77515 32.858 -1.31633 70.5881 24.5921 97.4361C30.8161 103.887 32.4209 102.122 19.5619 100.1C13.4293 99.1356 11.9003 99.0742 7.11286 97.6834C3.57278 96.6542 1.75238 103.321 4.38201 104.086C13.5111 106.74 20.9812 111.535 53.7395 118.961C56.3483 119.551 58.4593 118.309 59.7708 116.237C65.6494 106.953 52.8411 104.26 46.2567 64.5525C45.7598 61.5535 42.5278 60.2309 40.0286 61.8953C37.1284 63.8248 35.7264 67.4053 36.2324 70.795C37.4722 79.0605 39.456 86.9797 42.22 95.0675C11.2228 72.2311 1.69424 37.1059 11.9236 4.43878C13.042 0.862563 8.77261 -0.715727 6.99895 3.37739Z" fill="white"/>
</svg>
