<svg width="80" height="80" viewBox="0 0 80 80" fill="none" xmlns="http://www.w3.org/2000/svg">
<g opacity="0.3" clip-path="url(#clip0_0_293)">
<path d="M75.7969 57.0474C80.129 47.9489 67.614 32.9422 47.8439 23.529C28.0738 14.1158 8.53504 13.8607 4.20293 22.9592C-0.129182 32.0578 12.3858 47.0645 32.1559 56.4777C51.9261 65.8909 71.4648 66.146 75.7969 57.0474Z" stroke="white" stroke-width="1.6987" stroke-miterlimit="10"/>
<path d="M57.1861 33.8926C64.5047 54.5362 62.7381 73.9936 53.2492 77.35C43.7602 80.7065 30.1324 66.7254 22.8138 46.0819C15.4952 25.4384 17.2618 5.98096 26.7507 2.6245C36.2397 -0.73197 49.8675 13.2743 57.1861 33.8926Z" stroke="white" stroke-width="1.6987" stroke-miterlimit="10"/>
<path d="M33.8927 22.8138C54.5362 15.4952 73.9936 17.2618 77.3501 26.7507C80.7066 36.2397 66.7255 49.8675 46.082 57.1861C25.4384 64.5047 5.98102 62.7381 2.62456 53.2492C-0.731909 43.7602 13.2744 30.1324 33.8927 22.8138Z" stroke="white" stroke-width="1.6987" stroke-miterlimit="10"/>
<path d="M43.4069 32.8328C47.3691 34.7255 49.0347 39.4448 47.1672 43.4069C45.2744 47.3691 40.5552 49.0347 36.593 47.1672C32.6309 45.2744 30.9653 40.5552 32.8328 36.593C34.7255 32.6309 39.47 30.9653 43.4069 32.8328Z" stroke="white" stroke-width="1.6987" stroke-miterlimit="10"/>
</g>
<defs>
<clipPath id="clip0_0_293">
<rect width="80" height="80" fill="white"/>
</clipPath>
</defs>
</svg>
