<svg width="115" height="120" viewBox="0 0 115 120" fill="none" xmlns="http://www.w3.org/2000/svg">
<path d="M27.0097 79.8067C38.4247 92.8952 57.39 97.7357 74.1807 90.4731C94.9445 81.4806 104.48 57.3569 95.5011 36.6016C88.9535 21.4753 74.3721 12.3103 58.9075 11.9062" stroke="white" stroke-width="2.1481" stroke-miterlimit="10"/>
<path d="M87.5589 39.7629C94.776 56.449 87.1084 75.8319 70.4355 83.0576C53.7494 90.2747 34.3665 82.6071 27.1408 65.9342C19.9237 49.248 27.5913 29.8652 44.2642 22.6395C60.937 15.4138 80.3199 23.0814 87.5589 39.7629Z" stroke="white" stroke-width="2.1481" stroke-miterlimit="10"/>
<path d="M41.3792 81.123C26.6622 62.2967 35.6559 23.6226 68.7164 22.1732" stroke="white" stroke-width="2.1481" stroke-miterlimit="10"/>
<path d="M76.6702 26.6749C85.7636 41.353 78.4348 76.3028 48.7364 84.2437" stroke="white" stroke-width="2.1481" stroke-miterlimit="10"/>
<path d="M71.7784 23.5809L44.6721 82.4351" stroke="white" stroke-width="2.1481" stroke-miterlimit="10"/>
<path d="M40.195 24.6648L89.4612 47.9663" stroke="white" stroke-width="2.1481" stroke-miterlimit="10"/>
<path d="M24.8769 57.5918L74.1345 80.9066" stroke="white" stroke-width="2.1481" stroke-miterlimit="10"/>
<path d="M27.3894 38.7073L86.731 66.9552" stroke="white" stroke-width="2.1481" stroke-miterlimit="10"/>
<path d="M36.601 102.649L70.4517 107.333C70.4517 107.333 67.6107 95.7971 54.5826 93.8585C44.1045 92.2831 36.601 102.649 36.601 102.649Z" stroke="white" stroke-width="2.1481" stroke-miterlimit="10"/>
</svg>
