<svg width="50" height="81" viewBox="0 0 50 81" fill="none" xmlns="http://www.w3.org/2000/svg">
<path d="M2.76016 56.3409L7.93305 76.2449L25.8248 66.1191" stroke="white" stroke-opacity="0.3" stroke-width="1.4765" stroke-miterlimit="10" stroke-linecap="round"/>
<path d="M7.93299 76.2449L14.8251 72.3465L5.94209 68.5791L7.93299 76.2449Z" stroke="white" stroke-opacity="0.3" stroke-width="1.4765" stroke-miterlimit="10" stroke-linecap="round"/>
<path d="M20.0673 63.6714C15.6618 64.016 11.3468 62.1889 8.53402 58.7905C6.30142 60.0588 3.41447 58.8339 2.77656 56.3428C4.90087 51.3467 25.6396 2.40879 25.6396 2.40879L32.1262 3.06034L43.7068 7.96353L48.7062 12.1706C48.7062 12.1706 27.9694 61.0921 25.8431 66.1046C23.5941 67.3709 20.7052 66.1625 20.0673 63.6714Z" stroke="white" stroke-opacity="0.3" stroke-width="1.4765" stroke-miterlimit="10" stroke-linecap="round"/>
<path d="M43.1026 8.14174L20.0672 63.6713" stroke="white" stroke-opacity="0.3" stroke-width="1.4765" stroke-miterlimit="10" stroke-linecap="round"/>
<path d="M8.1133 59.107L32.1097 3.05822" stroke="white" stroke-opacity="0.3" stroke-width="1.4765" stroke-miterlimit="10" stroke-linecap="round"/>
</svg>
