<svg width="21" height="20" viewBox="0 0 21 20" fill="none" xmlns="http://www.w3.org/2000/svg">
<rect x="0.5" width="20" height="20" rx="10" fill="#FFCF3E"/>
<path d="M10.597 13.16C9.92365 13.16 9.33198 12.9817 8.82198 12.625C8.31532 12.265 7.92032 11.7633 7.63698 11.12C7.35698 10.4767 7.21698 9.73 7.21698 8.88C7.21698 8.02667 7.35698 7.28 7.63698 6.64C7.92032 5.99667 8.31532 5.49667 8.82198 5.14C9.33198 4.78 9.92365 4.6 10.597 4.6C11.2736 4.6 11.8653 4.78 12.372 5.14C12.8786 5.49667 13.272 5.99667 13.552 6.64C13.8353 7.28 13.977 8.02667 13.977 8.88C13.977 9.73 13.8353 10.4767 13.552 11.12C13.272 11.7633 12.8786 12.265 12.372 12.625C11.8653 12.9817 11.2736 13.16 10.597 13.16ZM10.597 12C11.0036 12 11.3553 11.8733 11.652 11.62C11.952 11.3667 12.1836 11.0067 12.347 10.54C12.5136 10.07 12.597 9.51667 12.597 8.88C12.597 8.24 12.5136 7.68667 12.347 7.22C12.1836 6.75333 11.952 6.39333 11.652 6.14C11.3553 5.88667 11.0036 5.76 10.597 5.76C10.1936 5.76 9.84198 5.88667 9.54198 6.14C9.24198 6.39333 9.00865 6.75333 8.84198 7.22C8.67865 7.68667 8.59698 8.24 8.59698 8.88C8.59698 9.51667 8.67865 10.07 8.84198 10.54C9.00865 11.0067 9.24198 11.3667 9.54198 11.62C9.84198 11.8733 10.1936 12 10.597 12Z" fill="white"/>
</svg>
