<svg width="1538" height="717" viewBox="0 0 1538 717" fill="none" xmlns="http://www.w3.org/2000/svg">
<path fill-rule="evenodd" clip-rule="evenodd" d="M0 0H5V4.97917H4.99209V5H0V0ZM0 712V717H5.02899V712H0ZM1382.97 717V712H1388C1389.59 712 1391.18 711.974 1392.76 711.923L1392.92 716.921C1391.29 716.974 1389.65 717 1388 717H1382.97ZM1402.71 716.288L1402.22 711.312C1405.39 711.003 1408.53 710.593 1411.64 710.084L1412.45 715.018C1409.23 715.545 1405.99 715.969 1402.71 716.288ZM1422.08 713.112L1420.95 708.242C1424.04 707.523 1427.09 706.706 1430.11 705.793L1431.56 710.578C1428.44 711.523 1425.28 712.369 1422.08 713.112ZM1440.85 707.423L1439.09 702.744C1442.06 701.626 1444.98 700.413 1447.86 699.109L1449.92 703.662C1446.95 705.011 1443.93 706.266 1440.85 707.423ZM1458.72 699.315L1456.36 694.907C1459.16 693.411 1461.89 691.826 1464.58 690.155L1467.22 694.398C1464.45 696.127 1461.61 697.767 1458.72 699.315ZM1475.38 688.937L1472.46 684.875C1475.03 683.029 1477.54 681.1 1479.99 679.093L1483.16 682.956C1480.63 685.032 1478.04 687.027 1475.38 688.937ZM1490.54 676.48L1487.12 672.832C1489.43 670.668 1491.67 668.429 1493.83 666.12L1497.48 669.539C1495.24 671.927 1492.93 674.242 1490.54 676.48ZM1503.96 662.16L1500.09 658.986C1502.1 656.543 1504.03 654.034 1505.88 651.461L1509.94 654.377C1508.03 657.038 1506.03 659.634 1503.96 662.16ZM1515.4 646.22L1511.15 643.575C1512.83 640.894 1514.41 638.155 1515.91 635.361L1520.31 637.722C1518.77 640.612 1517.13 643.446 1515.4 646.22ZM1524.66 628.923L1520.11 626.856C1521.41 623.983 1522.63 621.061 1523.74 618.091L1528.42 619.854C1527.27 622.926 1526.01 625.95 1524.66 628.923ZM1531.58 610.557L1526.79 609.108C1527.71 606.094 1528.52 603.039 1529.24 599.945L1534.11 601.077C1533.37 604.278 1532.52 607.439 1531.58 610.557ZM1536.02 591.445L1531.08 590.636C1531.59 587.531 1532 584.393 1532.31 581.224L1537.29 581.708C1536.97 584.986 1536.54 588.233 1536.02 591.445ZM1533 0V5.06251H1538V0H1533ZM14.9791 0V5H24.9662V0H14.9791ZM34.9532 0V5H44.9403V0H34.9532ZM54.9274 0V5H64.9145V0H54.9274ZM74.9015 0V5H84.8886V0H74.9015ZM94.8756 0V5H104.863V0H94.8756ZM1433.14 0V5H1443.12V0H1433.14ZM1453.11 0V5H1463.1V0H1453.11ZM1473.08 0V5H1483.07V0H1473.08ZM1493.06 0V5H1503.05V0H1493.06ZM1513.03 0V5H1523.02V0H1513.03ZM1538 15.1875H1533V25.3125H1538V15.1875ZM1538 35.4375H1533V45.5625H1538V35.4375ZM1538 55.6875H1533V65.8125H1538V55.6875ZM1538 75.9375H1533V86.0625H1538V75.9375ZM1538 96.1875H1533V106.312H1538V96.1875ZM1538 116.437H1533V126.562H1538V116.437ZM1538 136.687H1533V146.813H1538V136.687ZM1538 156.938H1533V167.062H1538V156.938ZM1538 177.188H1533V187.312H1538V177.188ZM1538 197.437H1533V207.562H1538V197.437ZM1538 217.688H1533V227.812H1538V217.688ZM1538 237.938H1533V248.062H1538V237.938ZM1538 258.188H1533V268.312H1538V258.188ZM1538 278.437H1533V288.562H1538V278.437ZM1538 298.688H1533V308.812H1538V298.688ZM1538 318.938H1533V329.062H1538V318.938ZM1538 339.188H1533V349.312H1538V339.188ZM1538 359.438H1533V369.562H1538V359.438ZM1538 379.688H1533V389.812H1538V379.688ZM1538 399.938H1533V410.062H1538V399.938ZM1538 420.188H1533V430.312H1538V420.188ZM1538 440.438H1533V450.562H1538V440.438ZM1538 460.688H1533V470.812H1538V460.688ZM1538 480.938H1533V491.062H1538V480.938ZM1538 501.188H1533V511.312H1538V501.188ZM1538 521.438H1533V531.562H1538V521.438ZM1538 541.688H1533V551.812H1538V541.688ZM1538 561.938H1533V567C1533 568.592 1532.97 570.178 1532.92 571.758L1537.92 571.919C1537.97 570.285 1538 568.646 1538 567V561.938ZM1372.91 717V712H1362.86V717H1372.91ZM1352.8 717V712H1342.74V717H1352.8ZM1332.68 717V712H1322.62V717H1332.68ZM1312.57 717V712H1302.51V717H1312.57ZM1292.45 717V712H1282.39V717H1292.45ZM1272.33 717V712H1262.28V717H1272.33ZM1252.22 717V712H1242.16V717H1252.22ZM1232.1 717V712H1222.04V717H1232.1ZM1211.99 717V712H1201.93V717H1211.99ZM1191.87 717V712H1181.81V717H1191.87ZM1171.75 717V712H1161.7V717H1171.75ZM1151.64 717V712H1141.58V717H1151.64ZM1131.52 717V712H1121.46V717H1131.52ZM359 717H357.058V712H359V717ZM347 717V712H336.942V717H347ZM326.884 717V712H316.826V717H326.884ZM306.768 717V712H296.71V717H306.768ZM286.652 717V712H276.594V717H286.652ZM266.536 717V712H256.478V717H266.536ZM246.42 717V712H236.362V717H246.42ZM226.304 717V712H216.246V717H226.304ZM206.188 717V712H196.13V717H206.188ZM186.072 717V712H176.014V717H186.072ZM165.956 717V712H155.899V717H165.956ZM145.841 717V712H135.783V717H145.841ZM125.725 717V712H115.667V717H125.725ZM105.609 717V712H95.5507V717H105.609ZM85.4928 717V712H75.4348V717H85.4928ZM65.3768 717V712H55.3188V717H65.3768ZM45.2609 717V712H35.2029V717H45.2609ZM25.1449 717V712H15.087V717H25.1449ZM0 702.062H5V692.104H0V702.062ZM0 682.146H5V672.187H0V682.146ZM0 662.229H5V652.271H0V662.229ZM0 642.312H5V632.354H0V642.312ZM0 622.396H5V612.438H0V622.396ZM0 602.479H5V592.521H0V602.479ZM0 582.563H5V572.604H0V582.563ZM0 562.646H5V552.688H0V562.646ZM0 542.729H5V532.771H0V542.729ZM0 522.813H5V512.854H0V522.813ZM0 502.896H5V492.938H0V502.896ZM0 482.979H5V473.021H0V482.979ZM0 463.063H5V453.104H0V463.063ZM0 443.146H5V433.188H0V443.146ZM0 423.229H5V413.271H0V423.229ZM0 403.313H5V393.354H0V403.313ZM0 383.396H5V373.438H0V383.396ZM0 363.479H5V353.521H0V363.479ZM0 343.563H5V333.604H0V343.563ZM0 323.646H5V313.688H0V323.646ZM0 303.729H5V293.771H0V303.729ZM0 283.812H5V273.854H0V283.812ZM0 263.896H5V253.937H0V263.896ZM0 243.979H5V234.021H0V243.979ZM0 224.062H5V214.104H0V224.062ZM0 204.146H5V194.187H0V204.146ZM0 184.229H5V174.271H0V184.229ZM0 164.312H5V154.354H0V164.312ZM0 144.396H5V134.438H0V144.396ZM0 124.479H5V114.521H0V124.479ZM0 104.563H5V94.6042H0V104.563ZM0 84.6458H5V74.6875H0V84.6458ZM0 64.7292H5V54.7708H0V64.7292ZM0 44.8125H5V34.8542H0V44.8125ZM0 24.8958H5V14.9375H0V24.8958Z" fill="white" fill-opacity="0.6"/>
</svg>
